<svg xmlns="http://www.w3.org/2000/svg" viewBox="0 0 512 512" role="img" aria-labelledby="title">
  <title id="title">Absorbance Adjuster icon</title>
  <defs>
    <linearGradient id="bg" x1="88" y1="64" x2="424" y2="448" gradientUnits="userSpaceOnUse">
      <stop offset="0" stop-color="#1d6f75"/>
      <stop offset="1" stop-color="#0f464a"/>
    </linearGradient>
    <linearGradient id="liquid" x1="0" y1="246" x2="0" y2="356" gradientUnits="userSpaceOnUse">
      <stop offset="0" stop-color="#9fd8b7"/>
      <stop offset="1" stop-color="#55b89f"/>
    </linearGradient>
  </defs>

  <rect width="512" height="512" rx="104" fill="url(#bg)"/>
  <circle cx="256" cy="256" r="178" fill="#eef5f2" opacity=".08"/>

  <path
    d="M124 378 204 126 284 378 M164 276h88"
    fill="none"
    stroke="#eef5f2"
    stroke-width="35"
    stroke-linecap="round"
    stroke-linejoin="round"
  />
  <path
    d="M228 378 308 126 388 378 M268 276h88"
    fill="none"
    stroke="#b8e3d8"
    stroke-width="35"
    stroke-linecap="round"
    stroke-linejoin="round"
    opacity=".92"
  />

  <rect x="233" y="112" width="46" height="284" rx="22" fill="#fbfdfc" stroke="#0f464a" stroke-width="10"/>
  <rect x="244" y="139" width="24" height="229" rx="12" fill="#e7f6ee"/>
  <path d="M244 268h24v86c0 7-5 12-12 12s-12-5-12-12z" fill="url(#liquid)"/>
  <path d="M238 151h36" stroke="#0f464a" stroke-width="10" stroke-linecap="round"/>
  <path d="M244 248h24" stroke="#175c62" stroke-width="7" stroke-linecap="round" opacity=".45"/>
</svg>
